<svg width="80" height="80" viewBox="0 0 80 80" fill="none" xmlns="http://www.w3.org/2000/svg">
<rect width="80" height="80" fill="#EB6900"/>
<path d="M28.1157 22.1554H61.997V18H28.1157C21.9858 18 17 23.02 17 29.1919V49.1957H40.1206C44.1262 49.1957 47.4886 46.403 48.4111 42.6541H49.8738H51.1392V50.9434C51.1392 51.3864 50.7841 51.7469 50.3411 51.7469H21.127C18.8481 51.7469 17 53.6077 17 55.9023H50.3411C53.0601 55.9023 55.2632 53.6841 55.2632 50.9464V38.5018H35.4018C36.1695 37.0016 37.7202 35.9688 39.5106 35.9688H57.873V51.8081C57.873 55.6884 54.7382 58.8446 50.8843 58.8446H17V63H50.8812C57.0111 63 61.997 57.98 61.997 51.8081V31.8074H39.5106C35.4139 31.8074 31.9757 34.6611 31.032 38.4957H29.5572H28.2917V30.075C28.2917 29.6319 28.6498 29.2714 29.0898 29.2714H57.873C60.1519 29.2714 62 27.4106 62 25.116H29.0868C26.3678 25.116 24.1647 27.3343 24.1647 30.0719V42.6449H44.0352C43.2948 44.0626 41.82 45.0342 40.1206 45.0342H21.127V29.1858C21.127 25.3055 24.2618 22.1492 28.1157 22.1492V22.1554Z" fill="white"/>
</svg>
