<svg width="31" height="31" viewBox="0 0 31 31" fill="none" xmlns="http://www.w3.org/2000/svg">
<g clip-path="url(#clip0_346_318)">
<path d="M15.5001 0.916504C7.46466 0.916504 0.916748 7.46442 0.916748 15.4998C0.916748 23.5353 7.46466 30.0832 15.5001 30.0832C23.5355 30.0832 30.0834 23.5353 30.0834 15.4998C30.0834 7.46442 23.5355 0.916504 15.5001 0.916504ZM19.5688 16.2728L14.4209 21.4207C14.2022 21.6394 13.9251 21.7415 13.648 21.7415C13.3709 21.7415 13.0938 21.6394 12.8751 21.4207C12.6717 21.2148 12.5576 20.9371 12.5576 20.6478C12.5576 20.3584 12.6717 20.0807 12.8751 19.8748L17.2501 15.4998L12.8751 11.1248C12.6717 10.919 12.5576 10.6413 12.5576 10.3519C12.5576 10.0625 12.6717 9.78483 12.8751 9.579C13.298 9.15609 13.998 9.15609 14.4209 9.579L19.5688 14.7269C20.0063 15.1498 20.0063 15.8498 19.5688 16.2728Z" fill="#EB6900"/>
</g>
<defs>
<clipPath id="clip0_346_318">
<rect width="31" height="31" fill="white"/>
</clipPath>
</defs>
</svg>
