<svg width="31" height="31" viewBox="0 0 31 31" fill="none" xmlns="http://www.w3.org/2000/svg">
<g clip-path="url(#clip0_504_153)">
<mask id="mask0_504_153" style="mask-type:luminance" maskUnits="userSpaceOnUse" x="0" y="0" width="31" height="31">
<path d="M31 0H0V31H31V0Z" fill="white"/>
</mask>
<g mask="url(#mask0_504_153)">
<path d="M15.5003 0.916504C7.4649 0.916504 0.916992 7.46442 0.916992 15.4998C0.916992 23.5353 7.4649 30.0832 15.5003 30.0832C23.5357 30.0832 30.0836 23.5353 30.0836 15.4998C30.0836 7.46442 23.5357 0.916504 15.5003 0.916504ZM19.569 16.2728L14.4211 21.4207C14.2024 21.6394 13.9253 21.7415 13.6482 21.7415C13.3711 21.7415 13.094 21.6394 12.8753 21.4207C12.6719 21.2148 12.5578 20.9371 12.5578 20.6478C12.5578 20.3584 12.6719 20.0807 12.8753 19.8748L17.2503 15.4998L12.8753 11.1248C12.6719 10.919 12.5578 10.6413 12.5578 10.3519C12.5578 10.0625 12.6719 9.78483 12.8753 9.579C13.2982 9.15609 13.9982 9.15609 14.4211 9.579L19.569 14.7269C20.0065 15.1498 20.0065 15.8498 19.569 16.2728Z" fill="#AFAFAF"/>
</g>
</g>
<defs>
<clipPath id="clip0_504_153">
<rect width="31" height="31" fill="white"/>
</clipPath>
</defs>
</svg>
