<svg width="35" height="35" viewBox="0 0 35 35" fill="none" xmlns="http://www.w3.org/2000/svg">
<path d="M-7.64949e-07 17.5C-3.43462e-07 27.1425 7.8575 35 17.5 35C27.1425 35 35 27.1425 35 17.5C35 7.8575 27.1425 -1.18644e-06 17.5 -7.64949e-07C7.8575 -3.43462e-07 -1.18644e-06 7.8575 -7.64949e-07 17.5ZM18.4275 12.6175L24.605 18.795C24.8675 19.0575 24.99 19.39 24.99 19.7225C24.99 20.055 24.8675 20.3875 24.605 20.65C24.358 20.8941 24.0248 21.031 23.6775 21.031C23.3302 21.031 22.997 20.8941 22.75 20.65L17.5 15.4L12.25 20.65C12.003 20.8941 11.6698 21.031 11.3225 21.031C10.9752 21.031 10.642 20.8941 10.395 20.65C9.8875 20.1425 9.8875 19.3025 10.395 18.795L16.5725 12.6175C17.08 12.0925 17.92 12.0925 18.4275 12.6175Z" fill="#EB6900"/>
</svg>
