<svg width="183" height="45" viewBox="0 0 183 45" fill="none" xmlns="http://www.w3.org/2000/svg">
<g clip-path="url(#clip0_108_32)">
<path d="M11.1746 4.1562H45.2352V0H11.1746C5.01224 0 0 5.02105 0 11.1942V31.202H23.243C27.2699 31.202 30.65 28.4088 31.5774 24.6591H33.0478H34.3199V32.9501C34.3199 33.3932 33.963 33.7538 33.5176 33.7538H4.1489C1.85785 33.7538 0 35.6149 0 37.91H33.5176C36.251 37.91 38.4658 35.6913 38.4658 32.9531V20.5059H18.4992C19.271 19.0054 20.8299 17.9725 22.6298 17.9725H41.0894V33.8149C41.0894 37.6961 37.938 40.853 34.0637 40.853H0V45.0092H34.0606C40.223 45.0092 45.2352 39.9881 45.2352 33.8149V13.8102H22.6298C18.5114 13.8102 15.055 16.6645 14.1063 20.4998H12.6236H11.3515V12.0774C11.3515 11.6343 11.7115 11.2737 12.1538 11.2737H41.0894C43.3804 11.2737 45.2383 9.41256 45.2383 7.11749H12.1508C9.41739 7.11749 7.20261 9.33616 7.20261 12.0744V24.6499H27.1783C26.434 26.0679 24.9514 27.0397 23.243 27.0397H4.1489V11.1881C4.1489 7.30696 7.30023 4.15008 11.1746 4.15008V4.1562Z" fill="#EB6900"/>
<path d="M76.6479 17.5569H70.1134V15.6988C70.1134 14.8309 70.031 14.2808 69.8632 14.0424C69.6954 13.8041 69.4178 13.6849 69.0273 13.6849C68.6033 13.6849 68.283 13.8438 68.0664 14.1647C67.8498 14.4856 67.7399 14.9715 67.7399 15.6193C67.7399 16.4567 67.862 17.0862 68.106 17.508C68.3409 17.9328 69.0029 18.4431 70.0951 19.039C73.2281 20.7596 75.1988 22.1745 76.0133 23.2778C76.8279 24.381 77.2336 26.1626 77.2336 28.6166C77.2336 30.4014 77.0078 31.7185 76.5563 32.562C76.1049 33.4054 75.2324 34.1175 73.9419 34.689C72.6485 35.2604 71.1445 35.5477 69.43 35.5477C67.5477 35.5477 65.94 35.2176 64.6069 34.5575C63.2738 33.8974 62.4043 33.057 61.9925 32.0363C61.5807 31.0156 61.3732 29.564 61.3732 27.6876V26.0465H67.9077V29.0964C67.9077 30.0346 67.9992 30.6397 68.1823 30.9086C68.3653 31.1776 68.6917 31.312 69.1585 31.312C69.6252 31.312 69.973 31.1409 70.2018 30.8017C70.4306 30.4625 70.5435 29.9552 70.5435 29.2859C70.5435 27.8098 70.3269 26.8472 69.8907 26.3918C69.4453 25.9365 68.347 25.1786 66.599 24.1182C64.851 23.0455 63.6917 22.2662 63.1212 21.7803C62.5538 21.2944 62.081 20.6251 61.7088 19.7694C61.3366 18.9137 61.1475 17.8197 61.1475 16.4873C61.1475 14.5681 61.4129 13.1654 61.9406 12.2761C62.4684 11.3898 63.3256 10.6961 64.5062 10.1949C65.6868 9.69371 67.1146 9.44312 68.7833 9.44312C70.6106 9.44312 72.1664 9.71816 73.4538 10.2621C74.7412 10.8092 75.5923 11.4968 76.0103 12.328C76.4282 13.1592 76.6357 14.5711 76.6357 16.5606V17.5508L76.6479 17.5569Z" fill="#EB6900"/>
<path d="M98.695 9.9718V35.0282H91.6602V24.5032H89.5552V35.0282H82.5204V9.9718H89.5552V18.9321H91.6602V9.9718H98.695Z" fill="#EB6900"/>
<path d="M116.764 9.9718L120.788 35.0282H113.597L113.219 30.5236H110.702L110.278 35.0282H103.006L106.593 9.9718H116.764ZM113.036 26.0832C112.679 23.2441 112.322 19.7358 111.965 15.5582C111.248 20.3562 110.797 23.8645 110.614 26.0832H113.036Z" fill="#EB6900"/>
<path d="M125.062 9.9718H130.044C133.363 9.9718 135.611 10.091 136.786 10.3294C137.96 10.5677 138.918 11.1728 139.659 12.1477C140.401 13.1226 140.77 14.6781 140.77 16.8142C140.77 18.764 140.507 20.075 139.986 20.7443C139.461 21.4166 138.433 21.817 136.892 21.9514C138.286 22.2723 139.22 22.7002 139.699 23.235C140.178 23.7728 140.477 24.2648 140.593 24.7141C140.709 25.1633 140.77 26.3979 140.77 28.421V35.0312H134.235V26.7036C134.235 25.362 134.119 24.5307 133.894 24.2129C133.665 23.892 133.067 23.7331 132.097 23.7331V35.0312H125.062V9.9718ZM132.097 14.2594V19.8305C132.887 19.8305 133.442 19.7297 133.759 19.528C134.077 19.3263 134.235 18.6754 134.235 17.5691V16.1908C134.235 15.3962 134.083 14.8767 133.775 14.6292C133.466 14.3816 132.908 14.2564 132.094 14.2564L132.097 14.2594Z" fill="#EB6900"/>
<path d="M163.348 9.9718L159.312 21.2852L163.732 35.0282H156.462L153.613 24.2862V35.0282H146.578V9.9718H153.613V19.7083L156.746 9.9718H163.348Z" fill="#EB6900"/>
<path d="M182.414 17.5569H175.88V15.6988C175.88 14.8309 175.797 14.2808 175.63 14.0424C175.462 13.8041 175.184 13.6849 174.794 13.6849C174.37 13.6849 174.049 13.8438 173.833 14.1647C173.616 14.4856 173.506 14.9715 173.506 15.6193C173.506 16.4567 173.628 17.0862 173.872 17.508C174.107 17.9328 174.769 18.4431 175.861 19.039C178.994 20.7596 180.965 22.1745 181.78 23.2778C182.594 24.381 183 26.1626 183 28.6166C183 30.4014 182.774 31.7185 182.323 32.562C181.871 33.4085 180.999 34.1175 179.708 34.689C178.418 35.2604 176.911 35.5477 175.196 35.5477C173.314 35.5477 171.706 35.2176 170.373 34.5575C169.04 33.8974 168.171 33.057 167.759 32.0363C167.347 31.0156 167.14 29.564 167.14 27.6876V26.0465H173.674V29.0964C173.674 30.0346 173.766 30.6397 173.949 30.9086C174.132 31.1776 174.458 31.312 174.925 31.312C175.392 31.312 175.739 31.1409 175.968 30.8017C176.197 30.4625 176.31 29.9552 176.31 29.2859C176.31 27.8098 176.093 26.8472 175.657 26.3918C175.212 25.9365 174.113 25.1786 172.365 24.1182C170.617 23.0455 169.458 22.2662 168.888 21.7803C168.32 21.2944 167.847 20.6251 167.475 19.7694C167.103 18.9137 166.914 17.8197 166.914 16.4873C166.914 14.5681 167.179 13.1654 167.707 12.2761C168.235 11.3898 169.092 10.6961 170.273 10.1949C171.453 9.69371 172.881 9.44312 174.55 9.44312C176.377 9.44312 177.933 9.71816 179.22 10.2621C180.508 10.8092 181.359 11.4968 181.777 12.328C182.195 13.1592 182.402 14.5711 182.402 16.5606V17.5508L182.414 17.5569Z" fill="#EB6900"/>
</g>
<defs>
<clipPath id="clip0_108_32">
<rect width="183" height="45" fill="white"/>
</clipPath>
</defs>
</svg>
