<svg width="24" height="23" viewBox="0 0 24 23" fill="none" xmlns="http://www.w3.org/2000/svg">
<path d="M14.8851 2.81911L14.8851 2.81912L14.8897 2.8198C15.2791 2.87714 15.3605 3.03293 15.3685 3.05656C15.3742 3.0734 15.4075 3.22085 15.1535 3.45597L14.2695 4.27416C14.1787 4.35132 14.1243 4.43457 14.096 4.48307C14.0568 4.55024 14.0298 4.6166 14.0114 4.67344C13.9847 4.75577 13.9368 4.93684 13.9802 5.13798L13.9823 5.14754L13.9846 5.15703L14.2366 6.17889L14.2372 6.1813C14.3058 6.45493 14.2687 6.58382 14.2519 6.62576C14.2364 6.6643 14.2163 6.68345 14.2038 6.69268C14.16 6.7185 14.1057 6.74176 14.028 6.74176C13.9363 6.74176 13.7733 6.72032 13.5307 6.58395L13.5307 6.58393L13.5258 6.58125L12.4708 5.99973C12.3575 5.93303 12.2505 5.91039 12.204 5.90163C12.1333 5.88832 12.0651 5.88373 12.006 5.88373C11.9469 5.88373 11.8787 5.88832 11.808 5.90163C11.7618 5.91034 11.6558 5.93275 11.5433 5.99848L10.477 6.57973L10.4764 6.58002C10.1999 6.73104 10.0283 6.74662 9.94484 6.74256C9.86213 6.73853 9.81452 6.71272 9.7892 6.69618C9.77781 6.68873 9.75387 6.67005 9.73613 6.62576C9.71934 6.58382 9.68222 6.45493 9.75077 6.1813L9.75137 6.17888L10.0028 5.15953C10.037 5.02341 10.0236 4.9059 10.0182 4.86365C10.0101 4.79981 9.99577 4.73858 9.97856 4.68371C9.96158 4.62958 9.93637 4.56413 9.89915 4.49718C9.87394 4.45183 9.81912 4.36096 9.72186 4.27712L8.84982 3.45906L8.84983 3.45904L8.84651 3.45597C8.61556 3.24221 8.62216 3.10091 8.62954 3.06435C8.65717 3.00547 8.76165 2.87114 9.11034 2.8198L9.11034 2.81981L9.11491 2.81911L10.2469 2.64447C10.3682 2.63048 10.4588 2.58969 10.4949 2.57283C10.5574 2.54359 10.6124 2.50916 10.6575 2.4765C10.7023 2.44407 10.7535 2.4016 10.8022 2.3491C10.8261 2.32332 10.8898 2.25362 10.94 2.14683L11.5619 0.995571L11.5619 0.995576L11.5635 0.992492C11.6987 0.739209 11.8757 0.675 11.994 0.675C12.1123 0.675 12.2893 0.739209 12.4245 0.992492L12.4245 0.992496L12.4261 0.995571L13.0621 2.17292C13.1184 2.2772 13.19 2.34836 13.2226 2.37933C13.2649 2.41952 13.3095 2.45482 13.3521 2.48435C13.3938 2.51333 13.4467 2.54588 13.5075 2.57402C13.5418 2.5899 13.632 2.63045 13.7529 2.64445L14.8851 2.81911ZM2.4 14.7893H5.604C5.9413 14.7893 6.129 15.0351 6.129 15.225V21.8893C6.129 22.0792 5.9413 22.325 5.604 22.325H1.2C0.862696 22.325 0.675 22.0792 0.675 21.8893V16.3357C0.675 15.535 1.4027 14.7893 2.4 14.7893ZM8.667 11.8929C8.667 11.0921 9.3947 10.3465 10.392 10.3465H13.596C14.0696 10.3465 14.5143 10.5211 14.8345 10.8175C15.153 11.1123 15.321 11.5004 15.321 11.8929V21.8893C15.321 22.0792 15.1333 22.325 14.796 22.325H9.192C8.8547 22.325 8.667 22.0792 8.667 21.8893V11.8929ZM18.396 18.1215H21.6C22.5973 18.1215 23.325 18.8671 23.325 19.6679V21.8893C23.325 22.0792 23.1373 22.325 22.8 22.325H18.396C18.0587 22.325 17.871 22.0792 17.871 21.8893V18.5572C17.871 18.3673 18.0587 18.1215 18.396 18.1215Z" stroke="white" stroke-width="1.35"/>
</svg>
