<svg width="20" height="20" viewBox="0 0 20 20" fill="none" xmlns="http://www.w3.org/2000/svg">
<path d="M18.2348 15.5213C18.2348 15.8343 18.1653 16.1561 18.0175 16.4691C17.8696 16.7822 17.6783 17.0778 17.4262 17.3561C17.0001 17.8256 16.5305 18.1648 16.0001 18.3822C15.4783 18.5996 14.9131 18.7126 14.3044 18.7126C13.4175 18.7126 12.4696 18.5039 11.4696 18.0778C10.4696 17.6517 9.46963 17.0778 8.47832 16.3561C7.46798 15.617 6.51458 14.8031 5.62615 13.9213C4.74682 13.0361 3.9358 12.0855 3.20006 11.0778C2.48702 10.0865 1.91311 9.0952 1.49572 8.11259C1.07832 7.12129 0.869629 6.17346 0.869629 5.26911C0.869629 4.67781 0.973977 4.11259 1.18267 3.59085C1.39137 3.06042 1.7218 2.57346 2.18267 2.13868C2.73919 1.59085 3.34789 1.32129 3.99137 1.32129C4.23485 1.32129 4.47832 1.37346 4.69572 1.47781C4.9218 1.58216 5.1218 1.73868 5.27832 1.96477L7.29572 4.80825C7.45224 5.02564 7.56528 5.22564 7.64354 5.41694C7.7218 5.59955 7.76528 5.78216 7.76528 5.94738C7.76528 6.15607 7.70441 6.36477 7.58267 6.56477C7.46963 6.76477 7.30441 6.97346 7.09572 7.18216L6.43485 7.86911C6.33919 7.96477 6.29572 8.07781 6.29572 8.21694C6.29572 8.28651 6.30441 8.34738 6.3218 8.41694C6.34789 8.48651 6.37398 8.53868 6.39137 8.59085C6.54789 8.87781 6.81745 9.25172 7.20006 9.7039C7.59137 10.1561 8.00876 10.6169 8.46093 11.0778C8.9305 11.5387 9.38267 11.9648 9.84354 12.3561C10.2957 12.7387 10.6696 12.9995 10.9653 13.1561C11.0088 13.1735 11.0609 13.1995 11.1218 13.2256C11.1914 13.2517 11.2609 13.2604 11.3392 13.2604C11.487 13.2604 11.6001 13.2082 11.6957 13.1126L12.3566 12.4604C12.574 12.243 12.7827 12.0778 12.9827 11.9735C13.1827 11.8517 13.3827 11.7909 13.6001 11.7909C13.7653 11.7909 13.9392 11.8256 14.1305 11.9039C14.3218 11.9822 14.5218 12.0952 14.7392 12.243L17.6175 14.2865C17.8435 14.443 18.0001 14.6256 18.0957 14.843C18.1827 15.0604 18.2348 15.2778 18.2348 15.5213Z" stroke="white" stroke-width="1.30435" stroke-miterlimit="10"/>
<path d="M15.2173 7.40825C15.2173 6.88651 14.8086 6.08651 14.1999 5.43433C13.6434 4.83433 12.9043 4.36477 12.1738 4.36477M18.2608 7.40825C18.2608 4.04303 15.539 1.32129 12.1738 1.32129" stroke="white" stroke-width="1.30435" stroke-linecap="round" stroke-linejoin="round"/>
</svg>
