<svg width="14" height="8" viewBox="0 0 14 8" fill="none" xmlns="http://www.w3.org/2000/svg">
<g clip-path="url(#clip0_6_3)">
<path d="M0.399999 0.833341C0.558332 0.833341 0.716666 0.891674 0.841666 1.01667L6.275 6.45001C6.675 6.85001 7.325 6.85001 7.725 6.45001L13.1583 1.01667C13.4 0.775008 13.8 0.775008 14.0417 1.01667C14.1579 1.13429 14.2231 1.29298 14.2231 1.45834C14.2231 1.6237 14.1579 1.78239 14.0417 1.90001L8.60833 7.33334C8.18064 7.75775 7.60253 7.99591 7 7.99591C6.39747 7.99591 5.81936 7.75775 5.39167 7.33334L-0.0416682 1.90001C-0.283335 1.65834 -0.283335 1.25834 -0.0416682 1.01667C0.0833318 0.900008 0.241666 0.833341 0.399999 0.833341Z" fill="white"/>
</g>
<defs>
<clipPath id="clip0_6_3">
<rect width="14" height="8" fill="white" transform="matrix(-1 0 0 -1 14 8)"/>
</clipPath>
</defs>
</svg>
