<svg width="20" height="20" viewBox="0 0 20 20" fill="none" xmlns="http://www.w3.org/2000/svg">
<path d="M19.0909 19.7727H0.909083C0.536355 19.7727 0.227264 19.4636 0.227264 19.0909C0.227264 18.7182 0.536355 18.4091 0.909083 18.4091H19.0909C19.4636 18.4091 19.7727 18.7182 19.7727 19.0909C19.7727 19.4636 19.4636 19.7727 19.0909 19.7727Z" fill="white"/>
<path d="M18.1818 19.7727H1.81817C1.44544 19.7727 1.13635 19.4636 1.13635 19.0909V4.54545C1.13635 1.79999 2.70908 0.227264 5.45453 0.227264H14.5454C17.2909 0.227264 18.8636 1.79999 18.8636 4.54545V19.0909C18.8636 19.4636 18.5545 19.7727 18.1818 19.7727ZM2.49999 18.4091H17.5V4.54545C17.5 2.52726 16.5636 1.5909 14.5454 1.5909H5.45453C3.43635 1.5909 2.49999 2.52726 2.49999 4.54545V18.4091Z" fill="white"/>
<path d="M8.18183 14.7727H5.45455C5.08183 14.7727 4.77274 14.4636 4.77274 14.0909C4.77274 13.7182 5.08183 13.4091 5.45455 13.4091H8.18183C8.55455 13.4091 8.86364 13.7182 8.86364 14.0909C8.86364 14.4636 8.55455 14.7727 8.18183 14.7727ZM14.5455 14.7727H11.8182C11.4455 14.7727 11.1364 14.4636 11.1364 14.0909C11.1364 13.7182 11.4455 13.4091 11.8182 13.4091H14.5455C14.9182 13.4091 15.2273 13.7182 15.2273 14.0909C15.2273 14.4636 14.9182 14.7727 14.5455 14.7727ZM8.18183 10.6818H5.45455C5.08183 10.6818 4.77274 10.3727 4.77274 9.99999C4.77274 9.62726 5.08183 9.31817 5.45455 9.31817H8.18183C8.55455 9.31817 8.86364 9.62726 8.86364 9.99999C8.86364 10.3727 8.55455 10.6818 8.18183 10.6818ZM14.5455 10.6818H11.8182C11.4455 10.6818 11.1364 10.3727 11.1364 9.99999C11.1364 9.62726 11.4455 9.31817 11.8182 9.31817H14.5455C14.9182 9.31817 15.2273 9.62726 15.2273 9.99999C15.2273 10.3727 14.9182 10.6818 14.5455 10.6818ZM8.18183 6.5909H5.45455C5.08183 6.5909 4.77274 6.28181 4.77274 5.90908C4.77274 5.53636 5.08183 5.22726 5.45455 5.22726H8.18183C8.55455 5.22726 8.86364 5.53636 8.86364 5.90908C8.86364 6.28181 8.55455 6.5909 8.18183 6.5909ZM14.5455 6.5909H11.8182C11.4455 6.5909 11.1364 6.28181 11.1364 5.90908C11.1364 5.53636 11.4455 5.22726 11.8182 5.22726H14.5455C14.9182 5.22726 15.2273 5.53636 15.2273 5.90908C15.2273 6.28181 14.9182 6.5909 14.5455 6.5909Z" fill="white"/>
</svg>
