<svg width="20" height="20" viewBox="0 0 20 20" fill="none" xmlns="http://www.w3.org/2000/svg">
<path d="M15.2636 19.7727H4.73636C2.24545 19.7727 0.227264 17.7454 0.227264 15.2545V8.51818C0.227264 7.28181 0.990901 5.72727 1.97272 4.96363L6.87272 1.14545C8.34545 -6.93238e-06 10.7 -0.0545524 12.2273 1.01817L17.8454 4.95454C18.9273 5.70908 19.7727 7.32727 19.7727 8.64545V15.2636C19.7727 17.7454 17.7545 19.7727 15.2636 19.7727ZM7.70908 2.21817L2.80908 6.03636C2.16363 6.54545 1.5909 7.69999 1.5909 8.51818V15.2545C1.5909 16.0896 1.922 16.8906 2.51163 17.4819C3.10126 18.0733 3.90129 18.4067 4.73636 18.4091H15.2636C17 18.4091 18.4091 17 18.4091 15.2636V8.64545C18.4091 7.77272 17.7818 6.56363 17.0636 6.07272L11.4454 2.13636C10.4091 1.40908 8.69999 1.44545 7.70908 2.21817Z" fill="white"/>
<path d="M9.99999 16.1363C9.62727 16.1363 9.31818 15.8273 9.31818 15.4545V12.7273C9.31818 12.3545 9.62727 12.0454 9.99999 12.0454C10.3727 12.0454 10.6818 12.3545 10.6818 12.7273V15.4545C10.6818 15.8273 10.3727 16.1363 9.99999 16.1363Z" fill="white"/>
</svg>
