<svg width="14" height="13" viewBox="0 0 14 13" fill="none" xmlns="http://www.w3.org/2000/svg">
<g clip-path="url(#clip0_2_14)">
<path d="M9.23751 6.5C9.23751 7.7375 8.23751 8.7375 7.00001 8.7375C5.76251 8.7375 4.76251 7.7375 4.76251 6.5C4.76251 5.2625 5.76251 4.2625 7.00001 4.2625C8.23751 4.2625 9.23751 5.2625 9.23751 6.5Z" stroke="white" stroke-width="1.5" stroke-linecap="round" stroke-linejoin="round"/>
<path d="M6.99999 11.6687C9.20624 11.6687 11.2625 10.3687 12.6937 8.11875C13.2562 7.2375 13.2562 5.75625 12.6937 4.875C11.2625 2.625 9.20624 1.325 6.99999 1.325C4.79374 1.325 2.73749 2.625 1.30624 4.875C0.743744 5.75625 0.743744 7.2375 1.30624 8.11875C2.73749 10.3687 4.79374 11.6687 6.99999 11.6687Z" stroke="white" stroke-width="1.5" stroke-linecap="round" stroke-linejoin="round"/>
</g>
<defs>
<clipPath id="clip0_2_14">
<rect width="14" height="13" fill="white"/>
</clipPath>
</defs>
</svg>
