<svg width="22" height="21" viewBox="0 0 22 21" fill="none" xmlns="http://www.w3.org/2000/svg">
<g clip-path="url(#clip0_0_3)">
<path d="M0.4 11.7013C0.4 13.775 2.06179 15.4646 4.10779 15.4646C6.1538 15.4646 7.81559 13.775 7.81559 11.7013C7.81559 9.62763 6.1538 7.93809 4.10779 7.93809C2.06179 7.93809 0.4 9.62763 0.4 11.7013ZM1.51957 11.7044C1.51957 10.2519 2.68387 9.07491 4.10779 9.07491C5.53471 9.07491 6.69602 10.2518 6.69602 11.7044C6.69602 13.157 5.53471 14.334 4.10779 14.334C2.68088 14.334 1.51957 13.157 1.51957 11.7044Z" fill="white" stroke="white" stroke-width="0.2"/>
<path d="M14.4458 5.24375L14.3964 5.15682L14.3101 5.2074L6.70741 9.66429L6.62114 9.71486L6.67057 9.80179L7.13035 10.6104L7.17978 10.6973L7.26605 10.6468L14.8688 6.18987L14.955 6.1393L14.9056 6.05237L14.4458 5.24375Z" fill="white" stroke="white" stroke-width="0.2"/>
<path d="M13.743 4.16013C13.743 6.19994 15.3509 7.86805 17.3508 7.92203V7.92649H17.4508C19.4968 7.92649 21.1586 6.23695 21.1586 4.16324C21.1586 2.08954 19.4968 0.4 17.4508 0.4C15.4049 0.4 13.743 2.08632 13.743 4.16013ZM14.8626 4.16324C14.8626 2.71072 16.0269 1.53371 17.4508 1.53371C18.8777 1.53371 20.039 2.71065 20.039 4.16324C20.039 5.61584 18.8777 6.79278 17.4508 6.79278C16.0239 6.79278 14.8626 5.61584 14.8626 4.16324Z" fill="white" stroke="white" stroke-width="0.2"/>
<path d="M7.22406 12.3363L7.13014 12.302L7.09672 12.3962L6.78523 13.2747L6.75181 13.369L6.84573 13.4033L14.8518 16.33L14.9457 16.3643L14.9791 16.2701L15.2906 15.3916L15.3241 15.2973L15.2301 15.263L7.22406 12.3363Z" fill="white" stroke="white" stroke-width="0.2"/>
<path d="M14.1876 16.8368C14.1876 18.9105 15.8494 20.6001 17.8954 20.6001C19.9414 20.6001 21.6032 18.9105 21.6032 16.8368C21.6032 14.7631 19.9414 13.0736 17.8954 13.0736C15.8494 13.0736 14.1876 14.7631 14.1876 16.8368ZM15.3072 16.8399C15.3072 15.3874 16.4715 14.2104 17.8954 14.2104C19.3223 14.2104 20.4836 15.3873 20.4836 16.8399C20.4836 18.2925 19.3223 19.4695 17.8954 19.4695C16.4685 19.4695 15.3072 18.2925 15.3072 16.8399Z" fill="white" stroke="white" stroke-width="0.2"/>
</g>
<defs>
<clipPath id="clip0_0_3">
<rect width="22" height="21" fill="white"/>
</clipPath>
</defs>
</svg>
