<svg width="11" height="11" viewBox="0 0 11 11" fill="none" xmlns="http://www.w3.org/2000/svg">
<path d="M10.3982 8.85138L7.0468 5.49999L10.3982 2.1486C10.821 1.72581 10.821 1.02459 10.3982 0.601801C9.9754 0.17901 9.27418 0.17901 8.85139 0.601801L5.5 3.95319L2.14861 0.601801C1.72582 0.17901 1.0246 0.17901 0.601812 0.601801C0.179021 1.02459 0.179021 1.72581 0.601812 2.1486L3.9532 5.49999L0.601812 8.85138C0.179021 9.27417 0.179021 9.97539 0.601812 10.3982C1.0246 10.821 1.72582 10.821 2.14861 10.3982L5.5 7.04678L8.85139 10.3982C9.27418 10.821 9.9754 10.821 10.3982 10.3982C10.821 9.97539 10.821 9.27417 10.3982 8.85138Z" fill="white"/>
</svg>
