<svg width="28" height="28" viewBox="0 0 28 28" fill="none" xmlns="http://www.w3.org/2000/svg">
<g clip-path="url(#clip0_1_11)">
<path d="M21.6269 26C21.6269 22.517 18.1619 19.7 13.8959 19.7C9.62986 19.7 6.16486 22.517 6.16486 26M13.8959 17C15.0893 17 16.2339 16.5259 17.0778 15.682C17.9218 14.8381 18.3959 13.6935 18.3959 12.5C18.3959 11.3065 17.9218 10.1619 17.0778 9.31802C16.2339 8.47411 15.0893 8 13.8959 8C12.7024 8 11.5578 8.47411 10.7139 9.31802C9.86996 10.1619 9.39586 11.3065 9.39586 12.5C9.39586 13.6935 9.86996 14.8381 10.7139 15.682C11.5578 16.5259 12.7024 17 13.8959 17Z" stroke="white" stroke-width="1.5" stroke-linecap="round" stroke-linejoin="round"/>
</g>
<rect x="1.41486" y="1.25" width="25.5" height="25.5" rx="12.75" stroke="white" stroke-width="1.5"/>
<defs>
<clipPath id="clip0_1_11">
<rect x="2.16486" y="2" width="24" height="24" rx="12" fill="white"/>
</clipPath>
</defs>
</svg>
