<svg width="16" height="15" viewBox="0 0 16 15" fill="none" xmlns="http://www.w3.org/2000/svg">
<path d="M14.5614 7.49999C14.5614 11.136 11.614 14.0833 7.97805 14.0833C4.34207 14.0833 1.39471 11.136 1.39471 7.49999C1.39471 3.86401 4.34207 0.916656 7.97805 0.916656C11.614 0.916656 14.5614 3.86401 14.5614 7.49999Z" stroke="white"/>
<path d="M8 10.4963C8.79466 10.4963 9.55677 10.1806 10.1187 9.61867C10.6806 9.05677 10.9963 8.29466 10.9963 7.5C10.9963 6.70535 10.6806 5.94324 10.1187 5.38134C9.55677 4.81943 8.79466 4.50375 8 4.50375C7.20535 4.50375 6.44324 4.81943 5.88134 5.38134C5.31943 5.94324 5.00375 6.70535 5.00375 7.5C5.00375 8.29466 5.31943 9.05677 5.88134 9.61867C6.44324 10.1806 7.20535 10.4963 8 10.4963Z" fill="white"/>
</svg>
