<svg width="36" height="36" viewBox="0 0 36 36" fill="none" xmlns="http://www.w3.org/2000/svg">
<g clip-path="url(#clip0_28_30)">
<path d="M9.19133 3.7326H35.6829V0.5H9.19133C4.39841 0.5 0.5 4.40526 0.5 9.20662V24.7683H18.5779C21.7099 24.7683 24.3389 22.5958 25.0602 19.6793H26.2039H27.1933V26.1278C27.1933 26.4725 26.9157 26.753 26.5693 26.753H3.72692C1.945 26.753 0.5 28.2005 0.5 29.9856H26.5693C28.6952 29.9856 30.4178 28.2599 30.4178 26.1302V16.4491H14.8883C15.4886 15.282 16.701 14.4786 18.101 14.4786H32.4584V26.8005C32.4584 29.8192 30.0073 32.2745 26.994 32.2745H0.5V35.5071H26.9916C31.7845 35.5071 35.6829 31.6019 35.6829 26.8005V11.2413H18.101C14.8978 11.2413 12.2095 13.4613 11.4715 16.4443H10.3184H9.32895V9.89355C9.32895 9.5489 9.60893 9.26842 9.95298 9.26842H32.4584C34.2403 9.26842 35.6853 7.82088 35.6853 6.03582H9.95061C7.82464 6.03582 6.10203 7.76146 6.10203 9.89117V19.6722H21.6387C21.0598 20.775 19.9066 21.5309 18.5779 21.5309H3.72692V9.20187C3.72692 6.18319 6.17796 3.72784 9.19133 3.72784V3.7326Z" fill="#EB6900"/>
</g>
<defs>
<clipPath id="clip0_28_30">
<rect width="36" height="36" fill="white"/>
</clipPath>
</defs>
</svg>
